<svg width="256" height="256" viewBox="0 0 256 256" fill="none" xmlns="http://www.w3.org/2000/svg">
  <!-- Background circle -->
  <circle cx="128" cy="128" r="120" fill="#1F2937" stroke="#8B5CF6" stroke-width="4"/>
  
  <!-- Circuit board / AI icon -->
  <!-- Central processor -->
  <rect x="103" y="103" width="50" height="50" rx="4" fill="#8B5CF6"/>
  <rect x="108" y="108" width="40" height="40" rx="2" fill="#1F2937"/>
  
  <!-- Circuit connections -->
  <line x1="128" y1="80" x2="128" y2="103" stroke="#A78BFA" stroke-width="4"/>
  <line x1="128" y1="153" x2="128" y2="176" stroke="#A78BFA" stroke-width="4"/>
  <line x1="80" y1="128" x2="103" y2="128" stroke="#A78BFA" stroke-width="4"/>
  <line x1="153" y1="128" x2="176" y2="128" stroke="#A78BFA" stroke-width="4"/>
  
  <!-- Connection nodes -->
  <circle cx="128" cy="80" r="8" fill="#A78BFA"/>
  <circle cx="128" cy="176" r="8" fill="#A78BFA"/>
  <circle cx="80" cy="128" r="8" fill="#A78BFA"/>
  <circle cx="176" cy="128" r="8" fill="#A78BFA"/>
  
  <!-- Diagonal connections -->
  <line x1="95" y1="95" x2="103" y2="103" stroke="#A78BFA" stroke-width="3"/>
  <line x1="161" y1="95" x2="153" y2="103" stroke="#A78BFA" stroke-width="3"/>
  <circle cx="95" cy="95" r="6" fill="#A78BFA"/>
  <circle cx="161" cy="95" r="6" fill="#A78BFA"/>
  
  <!-- AI brain symbol in center -->
  <circle cx="128" cy="128" r="15" fill="#A78BFA"/>
  <circle cx="125" cy="125" r="3" fill="#1F2937"/>
  <circle cx="131" cy="125" r="3" fill="#1F2937"/>
  <path d="M 120 133 Q 128 137, 136 133" stroke="#1F2937" stroke-width="2" fill="none"/>
  
  <!-- Text -->
  <text x="128" y="215" font-family="Arial, sans-serif" font-size="22" font-weight="bold" fill="#A78BFA" text-anchor="middle">AI</text>
</svg>
