<svg width="256" height="256" viewBox="0 0 256 256" fill="none" xmlns="http://www.w3.org/2000/svg">
  <!-- Background circle -->
  <circle cx="128" cy="128" r="120" fill="#1F2937" stroke="#6366F1" stroke-width="4"/>
  
  <!-- Computer/Monitor screens -->
  <!-- Left monitor -->
  <rect x="50" y="90" width="60" height="45" rx="3" fill="#6366F1"/>
  <rect x="55" y="95" width="50" height="35" rx="2" fill="#1F2937"/>
  <line x1="60" y1="105" x2="100" y2="105" stroke="#818CF8" stroke-width="2"/>
  <line x1="60" y1="112" x2="95" y2="112" stroke="#818CF8" stroke-width="2"/>
  <line x1="60" y1="119" x2="100" y2="119" stroke="#818CF8" stroke-width="2"/>
  
  <!-- Right monitor -->
  <rect x="146" y="90" width="60" height="45" rx="3" fill="#6366F1"/>
  <rect x="151" y="95" width="50" height="35" rx="2" fill="#1F2937"/>
  <circle cx="160" cy="105" r="3" fill="#818CF8"/>
  <circle cx="170" cy="105" r="3" fill="#818CF8"/>
  <circle cx="180" cy="105" r="3" fill="#818CF8"/>
  <circle cx="190" cy="105" r="3" fill="#818CF8"/>
  
  <!-- Center analytics display -->
  <rect x="90" y="145" width="76" height="50" rx="3" fill="#818CF8"/>
  <rect x="95" y="150" width="66" height="40" rx="2" fill="#1F2937"/>
  
  <!-- Chart bars -->
  <rect x="100" y="175" width="8" height="10" fill="#818CF8"/>
  <rect x="112" y="170" width="8" height="15" fill="#818CF8"/>
  <rect x="124" y="165" width="8" height="20" fill="#818CF8"/>
  <rect x="136" y="172" width="8" height="13" fill="#818CF8"/>
  <rect x="148" y="168" width="8" height="17" fill="#818CF8"/>
  
  <!-- Text -->
  <text x="128" y="220" font-family="Arial, sans-serif" font-size="18" font-weight="bold" fill="#818CF8" text-anchor="middle">RESEARCH</text>
</svg>
